<?xml version="1.0" standalone="no"?>
<!DOCTYPE svg PUBLIC "-//W3C//DTD SVG 20010904//EN"
 "http://www.w3.org/TR/2001/REC-SVG-20010904/DTD/svg10.dtd">
<svg version="1.0" xmlns="http://www.w3.org/2000/svg"
 width="512.000000pt" height="512.000000pt" viewBox="0 0 512.000000 512.000000"
 preserveAspectRatio="xMidYMid meet">
<metadata>
Created by potrace 1.11, written by Peter Selinger 2001-2013
</metadata>
<g transform="translate(0.000000,512.000000) scale(0.100000,-0.100000)"
fill="#000000" stroke="none">
<path d="M4475 5101 c-85 -25 -144 -54 -206 -102 -30 -24 -56 -45 -59 -48 -4
-5 -209 -187 -389 -346 -19 -16 -41 -37 -50 -46 -9 -8 -49 -44 -90 -80 -41
-35 -82 -71 -91 -79 -9 -8 -49 -44 -90 -80 -40 -36 -84 -74 -96 -85 -12 -11
-35 -31 -50 -44 -16 -14 -83 -72 -149 -130 -66 -58 -133 -117 -149 -131 -15
-14 -38 -34 -50 -45 -51 -46 -171 -151 -190 -168 -220 -189 -495 -460 -578
-572 -125 -167 -159 -275 -153 -490 4 -137 8 -165 37 -255 103 -321 373 -562
699 -625 86 -16 248 -16 336 1 259 49 474 217 741 579 45 61 85 115 90 120 41
53 312 488 389 625 11 19 78 139 150 265 71 127 151 271 178 320 26 50 51 95
55 100 4 6 31 55 60 110 29 55 78 145 107 200 152 284 196 416 188 570 -4 89
-8 107 -45 181 -54 110 -162 201 -291 245 -86 29 -222 33 -304 10z"/>
<path d="M1710 2149 c-36 -4 -83 -10 -105 -14 -22 -4 -53 -9 -70 -12 -57 -10
-208 -65 -274 -100 -218 -115 -391 -321 -505 -603 -58 -143 -147 -174 -285
-99 -69 38 -236 150 -356 239 -50 36 -96 70 -103 74 -11 7 -12 -16 -7 -121 3
-71 7 -138 9 -149 2 -10 7 -41 10 -69 79 -569 340 -974 756 -1172 91 -44 248
-90 360 -106 110 -16 427 -15 505 2 28 5 66 13 85 16 19 2 60 12 90 20 30 9
62 18 70 20 95 27 253 105 347 171 92 65 201 175 264 265 45 65 133 229 122
229 -3 0 -1 6 4 13 18 22 63 199 77 302 9 61 13 153 11 235 -5 181 -6 184 -58
195 -17 4 -38 12 -44 17 -7 6 -13 8 -13 5 0 -3 -32 7 -72 24 -261 108 -482
306 -620 556 l-40 73 -46 -3 c-26 -1 -76 -5 -112 -8z"/>
</g>
</svg>
